<svg xmlns="http://www.w3.org/2000/svg" width="20" height="18" viewBox="0 0 20 18">
  <g id="Group_262" data-name="Group 262" transform="translate(-166 -532)">
    <g id="Path_24" data-name="Path 24" transform="translate(166 534)" fill="#fff" stroke-linecap="round" stroke-linejoin="round">
      <path d="M 19.5 15.5 L 0.5 15.5 L 0.5 0.5 L 5.064579963684082 0.5 L 5.287429809570313 0.5 L 5.436409950256348 0.3342700004577637 L 7.085391044616699 -1.5 L 13.13859462738037 -1.5 C 13.40311050415039 -1.215601086616516 14.06776237487793 -0.3979018926620483 14.61964988708496 0.3079699873924255 L 14.76978969573975 0.5 L 15.0135498046875 0.5 L 19.5 0.5 L 19.5 15.5 Z" stroke="none"/>
      <path d="M 7.30825138092041 -1 L 5.808250427246094 0.6685495376586914 C 5.618590354919434 0.8795099258422852 5.348259925842285 1 5.064579963684082 1 L 1 1 L 1 15 L 19 15 L 19 1 L 15.0135498046875 1 C 14.70585060119629 1 14.41527938842773 0.8583402633666992 14.22574996948242 0.6159400939941406 C 13.76955127716064 0.03244495391845703 13.22068786621094 -0.6470832824707031 12.91484355926514 -1 L 7.30825138092041 -1 M 6.862549781799316 -2 C 6.862549781799316 -2 10.50842952728271 -2 13.32422065734863 -2 C 13.44985008239746 -2 15.0135498046875 0 15.0135498046875 0 L 20 0 L 20 16 L 0 16 L 0 0 L 5.064579963684082 0 L 6.862549781799316 -2 Z" stroke="none" fill="#707070"/>
    </g>
    <g id="Ellipse_3" data-name="Ellipse 3" transform="translate(171 537)" fill="#fff" stroke="#707070" stroke-width="1">
      <circle cx="5" cy="5" r="5" stroke="none"/>
      <circle cx="5" cy="5" r="4.5" fill="none"/>
    </g>
  </g>
</svg>
