<svg id="noun_copy_3136657" xmlns="http://www.w3.org/2000/svg" width="19.149" height="23.936" viewBox="0 0 19.149 23.936">
  <path id="Path_33" data-name="Path 33" d="M333.852,21.032h4.488a.3.3,0,0,0,.3-.3,1.392,1.392,0,0,0-.5-1.062l-3.845-3.2a1.865,1.865,0,0,0-1.027-.369.368.368,0,0,0-.369.369v3.615A.954.954,0,0,0,333.852,21.032Z" transform="translate(-319.491 -16.095)" fill="#6f6d6c"/>
  <path id="Path_34" data-name="Path 34" d="M152.128,19.989V16H145.6a1.6,1.6,0,0,0-1.6,1.6V34.351a1.6,1.6,0,0,0,1.6,1.6h11.968a1.6,1.6,0,0,0,1.6-1.6V22.233h-4.787A2.247,2.247,0,0,1,152.128,19.989Z" transform="translate(-140.011 -16)" fill="#6f6d6c"/>
  <path id="Path_35" data-name="Path 35" d="M66.593,96.556V80h-1A1.6,1.6,0,0,0,64,81.6V99.149a1.6,1.6,0,0,0,1.6,1.6H78.362a1.6,1.6,0,0,0,1.6-1.6v-1H68.189A1.6,1.6,0,0,1,66.593,96.556Z" transform="translate(-64 -76.809)" fill="#6f6d6c"/>
</svg>
