<svg xmlns="http://www.w3.org/2000/svg" width="452.805" height="213.75" viewBox="0 0 452.805 213.75">
  <g id="Group_249" data-name="Group 249" transform="translate(-744.12 -190.328)">
    <g id="Group_248" data-name="Group 248" transform="translate(-85 28)">
      <path id="Path_19" data-name="Path 19" d="M136.112,61.655C160.007,20.99,228.694-4.2,283.331,91.213s-31.558,72.819-96.149,61.262-141.551,63.644-159.8-11.6S111.8,103.024,136.112,61.655Z" transform="matrix(0.999, 0.052, -0.052, 0.999, 813.082, 185.806)" fill="#a9b8a2" opacity="0.1"/>
      <path id="Path_12" data-name="Path 12" d="M121.274,56.8c20.7-35.224,80.194-57.047,127.521,25.6s-27.335,63.076-83.284,53.065S42.9,190.6,27.091,125.427,100.218,92.636,121.274,56.8Z" transform="translate(804.448 227.084) rotate(-9)" fill="#a9b8a2" opacity="0.333"/>
      <g id="Group_246" data-name="Group 246">
        <g id="Rectangle_221" data-name="Rectangle 221" transform="translate(888 254)" fill="#fff" stroke="#1f1f1f" stroke-width="3">
          <rect width="144" height="94" stroke="none"/>
          <rect x="-1.5" y="-1.5" width="147" height="97" fill="none"/>
        </g>
        <line id="Line_10" data-name="Line 10" x2="72" y2="52.413" transform="translate(888.5 254.5)" fill="none" stroke="#1f1f1f" stroke-linecap="round" stroke-width="3"/>
        <line id="Line_11" data-name="Line 11" x1="71" y2="52.413" transform="translate(960.5 254.5)" fill="none" stroke="#1f1f1f" stroke-linecap="round" stroke-width="3"/>
        <path id="Path_18" data-name="Path 18" d="M0,41.587,63.474-5.94" transform="translate(888.5 306.913)" fill="#fff" stroke="#1f1f1f" stroke-width="3"/>
        <line id="Line_13" data-name="Line 13" x1="64" y1="47" transform="translate(968.5 301.5)" fill="none" stroke="#1f1f1f" stroke-width="3"/>
      </g>
      <g id="Group_247" data-name="Group 247" transform="matrix(-0.978, -0.208, 0.208, -0.978, 1461.659, 1787.848)">
        <path id="Path_16" data-name="Path 16" d="M802.593,3515s-13.443,70.249-120.409,50.217-173.239-43.384-219.831,19.088" transform="translate(48.595 -2104)" fill="none" stroke="#1f1f1f" stroke-width="1.5" stroke-dasharray="12"/>
        <g id="Polygon_1" data-name="Polygon 1" transform="matrix(-0.105, 0.995, -0.995, -0.105, 517.818, 1479.356)" fill="#fff" stroke-dasharray="7">
          <path d="M8.368,0l8.368,14.743H0Z" stroke="none"/>
          <path d="M 8.36776065826416 -9.5367431640625e-07 C 8.36776065826416 -9.5367431640625e-07 8.381230354309082 0.02373123168945312 8.406537055969238 0.06831932067871094 L 8.406588554382324 0.06840991973876953 C 8.419193267822266 0.09061717987060547 8.434715270996094 0.1179666519165039 8.452970504760742 0.1501302719116211 L 8.453350067138672 0.1507997512817383 C 8.462319374084473 0.1666021347045898 8.471950531005859 0.1835718154907227 8.482202529907227 0.2016334533691406 L 8.48361873626709 0.2041301727294922 C 8.485969543457031 0.2082710266113281 8.488277435302734 0.2123384475708008 8.490693092346191 0.2165927886962891 L 8.490771293640137 0.2167320251464844 C 8.493270874023438 0.2211370468139648 8.495747566223145 0.225499153137207 8.498315811157227 0.2300252914428711 L 8.499589920043945 0.232269287109375 C 8.500726699829102 0.2342729568481445 8.501987457275391 0.2364940643310547 8.503137588500977 0.238520622253418 L 8.503256797790527 0.2387304306030273 C 8.504451751708984 0.2408361434936523 8.505610466003418 0.2428770065307617 8.506819725036621 0.2450075149536133 L 8.508085250854492 0.2472381591796875 C 8.509209632873535 0.2492189407348633 8.510222434997559 0.251002311706543 8.511358261108398 0.2530050277709961 L 8.519099235534668 0.2666425704956055 C 8.519471168518066 0.267298698425293 8.519880294799805 0.2680187225341797 8.52025318145752 0.2686767578125 L 8.52098274230957 0.2699604034423828 C 8.522245407104492 0.272186279296875 8.523488998413086 0.2743778228759766 8.52476692199707 0.2766284942626953 L 8.525792121887207 0.2784357070922852 C 8.526978492736816 0.2805252075195312 8.528169631958008 0.2826242446899414 8.529367446899414 0.2847356796264648 L 8.530071258544922 0.285975456237793 C 8.53117561340332 0.2879209518432617 8.532299995422363 0.2899017333984375 8.533414840698242 0.291865348815918 L 8.535139083862305 0.2949037551879883 C 8.53791332244873 0.2997922897338867 8.54078197479248 0.3048458099365234 8.543617248535156 0.3098421096801758 L 8.544599533081055 0.3115720748901367 C 8.544948577880859 0.3121871948242188 8.545337677001953 0.3128719329833984 8.545687675476074 0.3134889602661133 L 8.546748161315918 0.3153572082519531 C 8.547148704528809 0.3160638809204102 8.547580718994141 0.3168249130249023 8.547983169555664 0.3175334930419922 L 8.549227714538574 0.3197259902954102 C 8.549631118774414 0.3204374313354492 8.550051689147949 0.3211793899536133 8.550457000732422 0.3218927383422852 L 8.556788444519043 0.3330478668212891 C 8.557044982910156 0.3334999084472656 8.557291984558105 0.3339357376098633 8.557549476623535 0.3343887329101562 L 8.559537887573242 0.3378915786743164 C 8.560674667358398 0.3398952484130859 8.561761856079102 0.3418111801147461 8.562908172607422 0.3438301086425781 L 8.564138412475586 0.3459987640380859 C 8.565497398376465 0.3483915328979492 8.566864013671875 0.350799560546875 8.568234443664551 0.3532142639160156 L 8.568723678588867 0.3540763854980469 C 8.570096015930176 0.3564939498901367 8.571491241455078 0.3589534759521484 8.5728759765625 0.3613920211791992 L 8.57419490814209 0.3637161254882812 C 8.574782371520996 0.364750862121582 8.575444221496582 0.3659172058105469 8.576033592224121 0.3669557571411133 L 8.576205253601074 0.3672580718994141 C 8.578618049621582 0.3715095520019531 8.581088066101074 0.3758602142333984 8.583537101745605 0.3801765441894531 L 8.584223747253418 0.3813867568969727 C 8.585750579833984 0.3840751647949219 8.587302207946777 0.386810302734375 8.588842391967773 0.3895235061645508 L 8.592866897583008 0.3966140747070312 C 8.593032836914062 0.396906852722168 8.593070983886719 0.3969745635986328 8.59323787689209 0.3972682952880859 L 8.598073959350586 0.4057884216308594 C 8.598298072814941 0.4061832427978516 8.59864330291748 0.4067926406860352 8.598868370056152 0.4071874618530273 L 8.600358963012695 0.409815788269043 C 8.601034164428711 0.4110040664672852 8.601606369018555 0.412013053894043 8.602283477783203 0.4132061004638672 L 8.60309886932373 0.414642333984375 C 8.603494644165039 0.4153385162353516 8.603850364685059 0.4159669876098633 8.604247093200684 0.4166650772094727 L 8.605996131896973 0.4197463989257812 C 8.606620788574219 0.4208478927612305 8.607234001159668 0.4219274520874023 8.607860565185547 0.4230318069458008 L 8.608065605163574 0.4233942031860352 C 8.610232353210449 0.427210807800293 8.612347602844238 0.4309377670288086 8.61453914642334 0.4347991943359375 L 8.619247436523438 0.4430942535400391 C 8.620060920715332 0.4445276260375977 8.620917320251465 0.4460363388061523 8.621734619140625 0.4474763870239258 L 8.621965408325195 0.4478836059570312 C 8.623600959777832 0.4507646560668945 8.625221252441406 0.4536199569702148 8.626870155334473 0.4565248489379883 L 8.628658294677734 0.4596757888793945 C 8.629958152770996 0.4619646072387695 8.631378173828125 0.4644689559936523 8.632686614990234 0.4667720794677734 L 8.633553504943848 0.4683008193969727 C 8.634267807006836 0.4695596694946289 8.634957313537598 0.4707746505737305 8.635674476623535 0.4720373153686523 L 8.640161514282227 0.4799423217773438 C 8.640341758728027 0.4802608489990234 8.640582084655762 0.4806842803955078 8.640763282775879 0.4810028076171875 L 8.642451286315918 0.4839763641357422 C 8.64293384552002 0.484827995300293 8.643425941467285 0.4856948852539062 8.64391040802002 0.4865474700927734 L 8.645473480224609 0.4893026351928711 C 8.646686553955078 0.4914388656616211 8.64783763885498 0.4934673309326172 8.649057388305664 0.4956159591674805 L 8.651387214660645 0.4997224807739258 C 8.65279483795166 0.502202033996582 8.654288291931152 0.5048341751098633 8.655704498291016 0.507328987121582 L 8.657517433166504 0.510523796081543 C 8.657764434814453 0.5109586715698242 8.657938003540039 0.5112638473510742 8.658185005187988 0.5116996765136719 L 11.822998046875 6.087800025939941 L 10.51847076416016 6.828208923339844 L 8.367758750915527 3.038861274719238 L 5.407450675964355 8.254638671875 L 4.102920532226562 7.514238834381104 L 8.36776065826416 -9.5367431640625e-07 Z M 15.27823638916016 12.1756010055542 L 16.73552131652832 14.74319839477539 L 16.73552131652832 14.74319839477539 L 15.0107593536377 14.74319839477539 L 15.0107593536377 14.74319839477539 C 13.90965843200684 14.74319839477539 12.68785095214844 14.74319839477539 12.68785095214844 14.74319839477539 L 12.68785095214844 13.24319839477539 L 14.1594123840332 13.24319839477539 L 13.97371101379395 12.91600894927979 L 15.27824020385742 12.17559814453125 Z M 0.8513517379760742 13.24319839477539 L 5.687850952148438 13.24319839477539 L 5.687850952148438 14.74319839477539 C 5.687850952148438 14.74319839477539 3.398592948913574 14.74319839477539 1.724766731262207 14.74319839477539 L 1.724766731262207 14.74319839477539 L 0 14.74319839477539 L 0 14.74319839477539 C 0 14.74319839477539 0 14.74319839477539 0 14.74319839477539 L 0 14.74319839477539 L 0 14.74319839477539 L 0 14.74319839477539 C 0 14.74319839477539 0 14.74319839477539 0 14.74319839477539 L 0.8513517379760742 13.24319839477539 Z" stroke="none" fill="#1f1f1f"/>
        </g>
      </g>
    </g>
  </g>
</svg>
