<svg xmlns="http://www.w3.org/2000/svg" width="1475.678" height="1144.571" viewBox="0 0 1475.678 1144.571">
  <g id="Group_376" data-name="Group 376" transform="translate(-223.786 -838.692)">
    <g id="Group_242" data-name="Group 242" transform="translate(899.822 -302.081)">
      <path id="Path_12" data-name="Path 12" d="M257.732,58.823C383.842-27.643,467.382,1.494,501.024,167.183,579.682,361.366,445.295,290.454,285.39,374.5s-144.322-54.756-233-135S131.623,145.289,257.732,58.823Z" transform="translate(138.277 1213.316)" fill="#a9b8a2" opacity="0.333"/>
      <path id="Path_13" data-name="Path 13" d="M254.131,52.4C393.376-43.068,485.617-10.9,522.764,172.051c86.85,214.408-61.534,136.111-238.094,228.915S125.315,340.507,27.4,251.9,114.886,147.877,254.131,52.4Z" transform="matrix(0.966, 0.259, -0.259, 0.966, 203.922, 1140.773)" fill="#a9b8a2" opacity="0.104"/>
      <g id="Group_241" data-name="Group 241" transform="translate(181.734 1186.878)">
        <g id="monitor" transform="translate(76.348 104.19)">
          <rect id="Rectangle_217" data-name="Rectangle 217" width="333" height="230" rx="2" transform="translate(0.096 0.014)" stroke-width="3" stroke="#1f1f1f" stroke-linecap="round" stroke-linejoin="round" fill="#fff"/>
          <line id="Line_4" data-name="Line 4" x2="131" transform="translate(100.096 298.014)" fill="none" stroke="#1f1f1f" stroke-linecap="round" stroke-linejoin="round" stroke-width="3"/>
          <line id="Line_5" data-name="Line 5" y2="68" transform="translate(166.096 230.014)" fill="none" stroke="#1f1f1f" stroke-linecap="round" stroke-linejoin="round" stroke-width="3"/>
        </g>
        <g id="Group_234" data-name="Group 234" transform="matrix(0.996, 0.087, -0.087, 0.996, 324.603, 52.487)">
          <g id="Rectangle_220" data-name="Rectangle 220" fill="#fff" stroke="#1f1f1f" stroke-width="3">
            <rect width="150.621" height="118.614" stroke="none"/>
            <rect x="1.5" y="1.5" width="147.621" height="115.614" fill="none"/>
          </g>
          <line id="Line_6" data-name="Line 6" x2="113.954" transform="translate(18.36 30.166)" fill="none" stroke="#1f1f1f" stroke-width="3"/>
          <line id="Line_7" data-name="Line 7" x2="113.954" transform="translate(18.36 50.618)" fill="none" stroke="#1f1f1f" stroke-width="3"/>
          <line id="Line_8" data-name="Line 8" x2="113.954" transform="translate(18.36 71.07)" fill="none" stroke="#1f1f1f" stroke-width="3"/>
          <line id="Line_9" data-name="Line 9" x2="113.954" transform="translate(18.36 91.522)" fill="none" stroke="#1f1f1f" stroke-width="3"/>
        </g>
        <g id="Group_239" data-name="Group 239" transform="translate(0 187.751)">
          <g id="Group_235" data-name="Group 235" transform="translate(0 24.138) rotate(-10)">
            <g id="Rectangle_220-2" data-name="Rectangle 220" fill="#fff" stroke="#1f1f1f" stroke-width="3">
              <rect width="139.005" height="109.466" stroke="none"/>
              <rect x="-1.5" y="-1.5" width="142.005" height="112.466" fill="none"/>
            </g>
          </g>
          <g id="Group_237" data-name="Group 237" transform="translate(12.543 30.869) rotate(-10)">
            <g id="Rectangle_220-3" data-name="Rectangle 220" fill="#fff" stroke="#1f1f1f" stroke-width="3">
              <rect width="116.638" height="91.852" stroke="none"/>
              <rect x="1.5" y="1.5" width="113.638" height="88.852" fill="none"/>
            </g>
          </g>
          <g id="Group_236" data-name="Group 236" transform="matrix(0.974, 0.225, -0.225, 0.974, 66.85, 63.033)">
            <g id="Rectangle_220-4" data-name="Rectangle 220" fill="#fff" stroke="#1f1f1f" stroke-width="3">
              <rect width="139.005" height="109.466" stroke="none"/>
              <rect x="-1.5" y="-1.5" width="142.005" height="112.466" fill="none"/>
            </g>
          </g>
          <g id="Group_238" data-name="Group 238" transform="matrix(0.974, 0.225, -0.225, 0.974, 75.56, 73.875)">
            <g id="Rectangle_220-5" data-name="Rectangle 220" fill="#fff" stroke="#1f1f1f" stroke-width="3">
              <rect width="117.153" height="92.258" stroke="none"/>
              <rect x="1.5" y="1.5" width="114.153" height="89.258" fill="none"/>
            </g>
          </g>
        </g>
        <g id="Group_240" data-name="Group 240" transform="matrix(0.974, 0.225, -0.225, 0.974, 356.962, 131.368)">
          <g id="Rectangle_220-6" data-name="Rectangle 220" fill="#fff" stroke="#1f1f1f" stroke-width="3">
            <rect width="150.621" height="80.959" stroke="none"/>
            <rect x="1.5" y="1.5" width="147.621" height="77.959" fill="none"/>
          </g>
          <line id="Line_6-2" data-name="Line 6" x2="113.954" transform="translate(18.36 30.166)" fill="none" stroke="#1f1f1f" stroke-width="3"/>
          <line id="Line_7-2" data-name="Line 7" x2="113.954" transform="translate(18.36 50.618)" fill="none" stroke="#1f1f1f" stroke-width="3"/>
        </g>
        <g id="Group_243" data-name="Group 243" transform="matrix(0.891, 0.454, -0.454, 0.891, 483.704, 0)">
          <g id="Rectangle_220-7" data-name="Rectangle 220" fill="#fff" stroke="#1f1f1f" stroke-width="3">
            <rect width="150.621" height="118.614" stroke="none"/>
            <rect x="1.5" y="1.5" width="147.621" height="115.614" fill="none"/>
          </g>
          <line id="Line_6-3" data-name="Line 6" x2="113.954" transform="translate(18.36 30.166)" fill="none" stroke="#1f1f1f" stroke-width="3"/>
          <line id="Line_7-3" data-name="Line 7" x2="113.954" transform="translate(18.36 50.618)" fill="none" stroke="#1f1f1f" stroke-width="3"/>
          <line id="Line_8-2" data-name="Line 8" x2="113.954" transform="translate(18.36 71.07)" fill="none" stroke="#1f1f1f" stroke-width="3"/>
          <line id="Line_9-2" data-name="Line 9" x2="113.954" transform="translate(18.36 91.522)" fill="none" stroke="#1f1f1f" stroke-width="3"/>
        </g>
      </g>
    </g>
    <g id="Group_254" data-name="Group 254" transform="translate(-92.741 20.889) rotate(-11)">
      <path id="Path_23" data-name="Path 23" d="M282.471,151.548c-61.866,189.488-85.191,64.565-178.254,57.157S0,203.37,0,110.376C0,20.358,63.128-8.3,133.746,1.991S344.336-37.94,282.471,151.548Z" transform="matrix(0.921, -0.391, 0.391, 0.921, 22.313, 1544.08)" fill="#f6f8f6"/>
      <path id="Path_20" data-name="Path 20" d="M253.953,186.346C192.087,375.834,168.762,250.911,75.7,243.5s-104.217-5.335-104.217-98.329c0-90.018,63.128-118.678,133.746-108.385S315.819-3.142,253.953,186.346Z" transform="translate(112.453 1426.355)" fill="#dce3da"/>
      <g id="Subtraction_2" data-name="Subtraction 2" transform="matrix(0.995, -0.105, 0.105, 0.995, 141.866, 1404.042)" fill="#fff">
        <path d="M 161.9379119873047 287.8926391601562 L 11.99968814849854 287.8926391601562 C 8.394072532653809 287.8926391601562 5.003726482391357 286.4885559082031 2.453187942504883 283.9390258789062 C -0.09677352011203766 281.3880004882812 -1.50088894367218 277.9976501464844 -1.50088894367218 274.3920288085938 L -1.50088894367218 12.00060367584229 C -1.50088894367218 8.394450187683105 -0.09669659286737442 5.004334926605225 2.453034162521362 2.454757928848267 C 5.003264904022217 -0.09547284990549088 8.393688201904297 -1.499972820281982 11.99968814849854 -1.499972820281982 L 161.9379119873047 -1.499972820281982 C 165.5443878173828 -1.499972820281982 168.9345703125 -0.09539593011140823 171.4839935302734 2.454988718032837 C 174.0339965820312 5.004027366638184 175.4385375976562 8.394181251525879 175.4385375976562 12.00060367584229 L 175.4385375976562 274.3920288085938 C 175.4385375976562 277.9979553222656 174.0340728759766 281.3883666992188 171.4838409423828 283.9387512207031 C 168.9340362548828 286.4884948730469 165.5439147949219 287.8926391601562 161.9379119873047 287.8926391601562 Z M 86.96880340576172 266.8578491210938 C 83.55783843994141 266.8578491210938 80.78280639648438 269.6328430175781 80.78280639648438 273.0437927246094 C 80.78280639648438 276.4542846679688 83.55783843994141 279.2289123535156 86.96880340576172 279.2289123535156 C 90.37976837158203 279.2289123535156 93.15480041503906 276.4542846679688 93.15480041503906 273.0437927246094 C 93.15480041503906 269.6328430175781 90.37976837158203 266.8578491210938 86.96880340576172 266.8578491210938 Z M 25.74807357788086 14.52933502197266 C 23.07576560974121 14.52933502197266 20.52964973449707 15.53402709960938 18.57876586914062 17.35829544067383 C 16.63718795776367 19.17391204833984 15.46395683288574 21.6282958984375 15.27522659301758 24.26925849914551 L 15.27168846130371 24.31883430480957 L 15.26488018035889 24.36806488037109 C 15.19780349731445 24.85237312316895 15.16380310058594 25.34548950195312 15.16380310058594 25.83360481262207 L 15.16380310058594 248.5836029052734 C 15.16380310058594 251.3884124755859 16.25595664978027 254.0253753662109 18.23903465270996 256.0086669921875 C 20.22211074829102 257.9919738769531 22.85884094238281 259.084228515625 25.66353416442871 259.084228515625 L 149.714111328125 259.084228515625 C 152.3860778808594 259.084228515625 154.9319610595703 258.0796508789062 156.8827209472656 256.2555236816406 C 158.8244171142578 254.4399871826172 159.9979248046875 251.9854888916016 160.1870269775391 249.3441009521484 L 160.1905670166016 249.2946472167969 L 160.1973419189453 249.2455291748047 C 160.2644195556641 248.7611389160156 160.2984161376953 248.2680206298828 160.2984161376953 247.7799072265625 L 160.2984161376953 25.02902793884277 C 160.2984161376953 22.22468185424805 159.2061462402344 19.58806610107422 157.2228393554688 17.60487365722656 C 155.2394561767578 15.62156581878662 152.6025390625 14.52933502197266 149.7978057861328 14.52933502197266 L 25.74807357788086 14.52933502197266 Z" stroke="none"/>
        <path d="M 161.9379119873047 286.3926391601562 C 165.1432647705078 286.3926391601562 168.1567230224609 285.1445007324219 170.4231567382812 282.8781433105469 C 172.6900329589844 280.6111145019531 173.9385375976562 277.5973815917969 173.9385375976562 274.3920288085938 L 173.9385375976562 12.00060367584229 C 173.9385375976562 8.79491138458252 172.6900329589844 5.78148889541626 170.4231567382812 3.515450239181519 C 168.1570739746094 1.2485271692276 165.1436462402344 2.714655965974089e-05 161.9379119873047 2.714655965974089e-05 L 11.99968814849854 2.714655965974089e-05 C 8.794264793395996 2.714655965974089e-05 5.780572414398193 1.2485271692276 3.513649463653564 3.515450239181519 C 1.247226476669312 5.781757831573486 -0.0008889019372873008 8.795181274414062 -0.0008889019372873008 12.00060367584229 L -0.0008889019372873008 274.3920288085938 C -0.0008889019372873008 277.5970764160156 1.247226476669312 280.6108093261719 3.513649463653564 282.8781433105469 C 5.780880451202393 285.1445007324219 8.794610977172852 286.3926391601562 11.99968814849854 286.3926391601562 L 161.9379119873047 286.3926391601562 M 86.96880340576172 265.3578491210938 C 91.20687866210938 265.3578491210938 94.65480041503906 268.8057556152344 94.65480041503906 273.0437927246094 C 94.65480041503906 277.2814025878906 91.20687866210938 280.7289123535156 86.96880340576172 280.7289123535156 C 82.73072814941406 280.7289123535156 79.28280639648438 277.2814025878906 79.28280639648438 273.0437927246094 C 79.28280639648438 268.8057556152344 82.73072814941406 265.3578491210938 86.96880340576172 265.3578491210938 M 25.74807357788086 13.02933502197266 L 149.7978057861328 13.02933502197266 C 153.0031433105469 13.02933502197266 156.0167694091797 14.27756595611572 158.2834625244141 16.54418182373047 C 160.5501098632812 18.8106803894043 161.7984161376953 21.82398796081543 161.7984161376953 25.02902793884277 L 161.7984161376953 247.7799072265625 C 161.7984161376953 248.3366394042969 161.7596435546875 248.8989105224609 161.6831817626953 249.4512176513672 C 161.4669952392578 252.470947265625 160.1260375976562 255.2765197753906 157.9072265625 257.3511657714844 C 155.6775665283203 259.43603515625 152.7678833007812 260.584228515625 149.714111328125 260.584228515625 L 25.66353416442871 260.584228515625 C 22.45818710327148 260.584228515625 19.44472694396973 259.3359375 17.17830276489258 257.0693054199219 C 14.91195678710938 254.8026885986328 13.66380310058594 251.7890625 13.66380310058594 248.5836029052734 L 13.66380310058594 25.83360481262207 C 13.66380310058594 25.27691268920898 13.7025728225708 24.71460342407227 13.77903461456299 24.16233444213867 C 13.9948034286499 21.1429500579834 15.33553409576416 18.33745002746582 17.55426406860352 16.26268005371094 C 19.78403472900391 14.17760372161865 22.69399642944336 13.02933502197266 25.74807357788086 13.02933502197266 M 161.9379119873047 289.3926391601562 L 11.99968814849854 289.3926391601562 C 7.993534088134766 289.3926391601562 4.226572513580322 287.8326110839844 1.392726540565491 284.9998779296875 C -1.440850496292114 282.1651306152344 -3.000888824462891 278.398193359375 -3.000888824462891 274.3920288085938 L -3.000888824462891 12.00060367584229 C -3.000888824462891 7.993796348571777 -1.440658092498779 4.226988792419434 1.392380356788635 1.394065618515015 C 4.225918769836426 -1.439434409141541 7.992995738983154 -2.999972820281982 11.99968814849854 -2.999972820281982 L 161.9379119873047 -2.999972820281982 C 165.9451446533203 -2.999972820281982 169.7120666503906 -1.439319014549255 172.5448760986328 1.394527196884155 C 175.3778839111328 4.226488590240479 176.9385375976562 7.993411540985107 176.9385375976562 12.00060367584229 L 176.9385375976562 274.3920288085938 C 176.9385375976562 278.3985900878906 175.3780364990234 282.1656799316406 172.5445404052734 284.9993591308594 C 169.7113800048828 287.8324584960938 165.944580078125 289.3926391601562 161.9379119873047 289.3926391601562 Z M 86.96880340576172 268.3578491210938 C 84.38491821289062 268.3578491210938 82.28280639648438 270.4599609375 82.28280639648438 273.0437927246094 C 82.28280639648438 275.6271667480469 84.38491821289062 277.7289123535156 86.96880340576172 277.7289123535156 C 89.55268859863281 277.7289123535156 91.65480041503906 275.6271667480469 91.65480041503906 273.0437927246094 C 91.65480041503906 270.4599609375 89.55268859863281 268.3578491210938 86.96880340576172 268.3578491210938 Z M 25.74807357788086 16.02933502197266 C 23.45757293701172 16.02933502197266 21.27530288696289 16.89041137695312 19.60330390930176 18.45391082763672 C 17.93880271911621 20.01041221618652 16.93307304382324 22.1136417388916 16.77141952514648 24.37618064880371 L 16.76430320739746 24.47529602050781 L 16.75068855285645 24.57375717163086 C 16.69303512573242 24.99018096923828 16.66380310058594 25.41406631469727 16.66380310058594 25.83360481262207 L 16.66380310058594 248.5836029052734 C 16.66380310058594 250.98779296875 17.59991836547852 253.2480621337891 19.29976463317871 254.9481048583984 C 20.99949645996094 256.6480407714844 23.25953483581543 257.584228515625 25.66353416442871 257.584228515625 L 149.714111328125 257.584228515625 C 152.0043029785156 257.584228515625 154.1863403320312 256.7232666015625 155.8582611083984 255.159912109375 C 157.5228729248047 253.6034088134766 158.5288391113281 251.4999847412109 158.6908416748047 249.2369842529297 L 158.6979217529297 249.1380615234375 L 158.7115325927734 249.0398406982422 C 158.7691955566406 248.6233673095703 158.7984161376953 248.1994476318359 158.7984161376953 247.7799072265625 L 158.7984161376953 25.02902793884277 C 158.7984161376953 22.62537384033203 157.8621826171875 20.36544990539551 156.1622314453125 18.66556549072266 C 154.4621429443359 16.9655647277832 152.2018737792969 16.02933502197266 149.7978057861328 16.02933502197266 L 25.74807357788086 16.02933502197266 Z" stroke="none" fill="#1f1f1f"/>
      </g>
      <g id="Group_252" data-name="Group 252" transform="matrix(0.978, 0.208, -0.208, 0.978, 232.915, 1408.254)">
        <g id="Group_250" data-name="Group 250" transform="matrix(0.105, 0.995, -0.995, 0.105, 147.649, 0)">
          <g id="Rectangle_220-8" data-name="Rectangle 220" fill="#fff" stroke="#1f1f1f" stroke-width="3">
            <rect width="188.523" height="148.462" stroke="none"/>
            <rect x="-1.5" y="-1.5" width="191.523" height="151.462" fill="none"/>
          </g>
        </g>
        <g id="Group_251" data-name="Group 251" transform="matrix(0.105, 0.995, -0.995, 0.105, 137.592, 15.957)">
          <g id="Rectangle_220-9" data-name="Rectangle 220" fill="#fff" stroke="#1f1f1f" stroke-width="3">
            <rect width="158.886" height="125.123" stroke="none"/>
            <rect x="1.5" y="1.5" width="155.886" height="122.123" fill="none"/>
          </g>
        </g>
      </g>
      <g id="Group_253" data-name="Group 253" transform="translate(346.41 1322.865)">
        <path id="Path_22" data-name="Path 22" d="M63.508,0S65.553,33.282,81.43,49.159s45.585,14.349,45.585,14.349S94.976,67.127,81.43,78.892c-11.007,9.561-17.923,48.124-17.923,48.124s-2.428-38.8-13.6-48.124C36.1,67.376,0,63.508,0,63.508s34.028,1.528,49.9-14.349S63.508,0,63.508,0Z" transform="matrix(0.985, 0.174, -0.174, 0.985, 22.056, 6.655)" fill="#f6f8f6"/>
        <path id="Path_21" data-name="Path 21" d="M52.626,0s1.7,27.58,14.852,40.736,37.774,11.89,37.774,11.89-26.55,3-37.774,12.748c-9.121,7.923-14.852,39.878-14.852,39.878S50.614,73.1,41.354,65.374C29.915,55.831,0,52.626,0,52.626s28.2,1.266,41.354-11.89S52.626,0,52.626,0Z" transform="translate(57.02 0) rotate(28)" fill="#dce3da"/>
      </g>
    </g>
    <g id="Group_245" data-name="Group 245" transform="matrix(0.978, 0.208, -0.208, 0.978, 479.011, -249.236)">
      <path id="Path_16" data-name="Path 16" d="M1199.857,3395.588s-24.593,255.022-305.374,204.749-309.826-68.188-432.13,88.593" transform="translate(63 -2104)" fill="none" stroke="#1f1f1f" stroke-width="1.5" stroke-dasharray="12"/>
      <g id="Polygon_1" data-name="Polygon 1" transform="matrix(-0.105, 0.995, -0.995, -0.105, 542.594, 1582.549)" fill="#fff" stroke-dasharray="14">
        <path d="M21,0,42,37H0Z" stroke="none"/>
        <path d="M 21 0 C 21 0 21.02685737609863 0.0473175048828125 21.07728004455566 0.1361579895019531 L 21.07784843444824 0.1371612548828125 C 21.10300254821777 0.1814804077148438 21.13413429260254 0.2363319396972656 21.17049980163574 0.3004035949707031 L 21.1715259552002 0.3022117614746094 C 21.18042945861816 0.3178977966308594 21.18970489501953 0.3342399597167969 21.19924354553223 0.3510475158691406 L 21.19954299926758 0.3515739440917969 C 21.20431709289551 0.3599891662597656 21.20930862426758 0.3687820434570312 21.2142391204834 0.377471923828125 L 21.2145824432373 0.3780746459960938 C 21.21944046020508 0.3866310119628906 21.22440910339355 0.3953895568847656 21.22941780090332 0.4042129516601562 L 21.23056602478027 0.4062347412109375 C 21.23558616638184 0.4150810241699219 21.2407112121582 0.4241104125976562 21.24588012695312 0.4332160949707031 L 21.24600601196289 0.4334373474121094 C 21.24854850769043 0.4379158020019531 21.2510986328125 0.442413330078125 21.25367736816406 0.4469528198242188 L 21.2545280456543 0.448455810546875 C 21.25581932067871 0.4507293701171875 21.25686264038086 0.4525680541992188 21.2581615447998 0.4548568725585938 L 21.2588062286377 0.45599365234375 C 21.25984764099121 0.4578285217285156 21.26086235046387 0.4596138000488281 21.26190757751465 0.461456298828125 L 21.26308250427246 0.4635276794433594 C 21.26351928710938 0.4642982482910156 21.26392364501953 0.4650077819824219 21.26436233520508 0.4657821655273438 L 21.26479530334473 0.4665451049804688 C 21.2667236328125 0.469940185546875 21.26859855651855 0.4732437133789062 21.27054595947266 0.4766731262207031 L 21.27137565612793 0.4781379699707031 C 21.27181816101074 0.4789199829101562 21.27243423461914 0.4800033569335938 21.27287864685059 0.4807853698730469 L 21.27312660217285 0.4812240600585938 C 21.27383804321289 0.4824752807617188 21.27443504333496 0.4835281372070312 21.27514839172363 0.4847831726074219 L 21.27517509460449 0.484832763671875 C 21.27633476257324 0.4868736267089844 21.27738380432129 0.4887237548828125 21.27854919433594 0.4907760620117188 L 21.28026580810547 0.4938011169433594 C 21.28062629699707 0.4944381713867188 21.28088760375977 0.4948959350585938 21.28124809265137 0.4955329895019531 L 21.28185653686523 0.4966049194335938 C 21.28230667114258 0.4973983764648438 21.28276824951172 0.4982109069824219 21.28321838378906 0.4990043640136719 L 21.28474044799805 0.5016860961914062 C 21.28501319885254 0.502166748046875 21.28535652160645 0.5027732849121094 21.28562927246094 0.5032501220703125 L 21.28604698181152 0.5039863586425781 C 21.28650093078613 0.5047874450683594 21.28690910339355 0.5055084228515625 21.28736305236816 0.5063095092773438 L 21.29357719421387 0.5172538757324219 C 21.29357719421387 0.5172538757324219 21.29365158081055 0.5173835754394531 21.29365158081055 0.5173835754394531 L 21.30238342285156 0.5327720642089844 C 21.30247688293457 0.5329360961914062 21.30263328552246 0.5332107543945312 21.30272674560547 0.5333747863769531 L 21.30673980712891 0.5404472351074219 C 21.30711555480957 0.541107177734375 21.30747413635254 0.5417404174804688 21.30784797668457 0.5424003601074219 L 21.30823135375977 0.5430755615234375 C 21.30879402160645 0.5440673828125 21.3093204498291 0.5449943542480469 21.30988502502441 0.5459861755371094 L 21.31096649169922 0.5478935241699219 C 21.31134414672852 0.5485572814941406 21.31174278259277 0.5492630004882812 21.31212043762207 0.5499267578125 L 21.31780624389648 0.5599441528320312 C 21.31818771362305 0.5606155395507812 21.31854057312012 0.5612373352050781 21.31892204284668 0.5619087219238281 L 21.31998443603516 0.56378173828125 C 21.32036590576172 0.564453125 21.32068252563477 0.5650138854980469 21.32106590270996 0.5656852722167969 L 21.32480621337891 0.5722770690917969 C 21.32586288452148 0.5741386413574219 21.32707214355469 0.5762672424316406 21.32813262939453 0.5781402587890625 L 21.32934379577637 0.5802688598632812 C 21.32963180541992 0.580780029296875 21.32990455627441 0.5812606811523438 21.3301944732666 0.5817718505859375 L 21.33671951293945 0.5932693481445312 C 21.33671951293945 0.5932693481445312 21.3368968963623 0.5935783386230469 21.3368968963623 0.5935783386230469 L 21.33878707885742 0.5969123840332031 C 21.33927726745605 0.5977745056152344 21.33984375 0.5987739562988281 21.34033393859863 0.5996360778808594 L 21.34363746643066 0.6054534912109375 C 21.3446216583252 0.6071891784667969 21.3456974029541 0.6090850830078125 21.3466854095459 0.6108283996582031 L 21.3485221862793 0.6140632629394531 C 21.3486213684082 0.6142387390136719 21.34868621826172 0.6143531799316406 21.34878540039062 0.6145286560058594 L 21.35302734375 0.6220016479492188 C 21.35422325134277 0.6241073608398438 21.3553524017334 0.6260986328125 21.35655403137207 0.6282157897949219 L 21.35739898681641 0.6297035217285156 C 21.35809898376465 0.6309394836425781 21.35854530334473 0.6317214965820312 21.35924911499023 0.6329612731933594 L 21.36042785644531 0.6350364685058594 C 21.36052703857422 0.6352157592773438 21.36051559448242 0.63519287109375 21.36061668395996 0.6353721618652344 L 21.36291122436523 0.6394119262695312 C 21.36301040649414 0.6395912170410156 21.36314010620117 0.6398162841796875 21.36324119567871 0.6399955749511719 L 21.36530494689941 0.6436309814453125 C 21.36530494689941 0.6436309814453125 21.36550140380859 0.6439781188964844 21.36550140380859 0.6439781188964844 L 21.38456153869629 0.6775627136230469 C 21.38497543334961 0.6782913208007812 21.38528251647949 0.6788330078125 21.38569641113281 0.6795616149902344 L 21.38672065734863 0.6813621520996094 C 21.38723945617676 0.6822776794433594 21.38781547546387 0.6832962036132812 21.38833618164062 0.6842117309570312 L 21.39457321166992 0.6952018737792969 C 21.39488792419434 0.6957550048828125 21.39508819580078 0.6961097717285156 21.3954029083252 0.6966629028320312 L 21.39702796936035 0.6995277404785156 C 21.39786720275879 0.7010040283203125 21.39866828918457 0.7024154663085938 21.39950942993164 0.7038993835449219 L 21.41285705566406 0.7274131774902344 C 21.41285705566406 0.7274131774902344 21.41290283203125 0.7274932861328125 21.41290283203125 0.7274932861328125 L 21.4150390625 0.7312583923339844 C 21.41525268554688 0.7316360473632812 21.41559982299805 0.7322463989257812 21.41581344604492 0.7326240539550781 L 21.41724586486816 0.7351455688476562 C 21.41853141784668 0.7374153137207031 21.41986656188965 0.7397651672363281 21.4211597442627 0.7420425415039062 L 21.42295455932617 0.7452049255371094 C 21.42317008972168 0.7455825805664062 21.42337608337402 0.7459449768066406 21.42359161376953 0.7463264465332031 L 21.4249382019043 0.7487030029296875 C 21.42558670043945 0.7498435974121094 21.42611885070801 0.7507820129394531 21.4267692565918 0.7519264221191406 L 27.91047668457031 12.17560195922852 L 26.60594940185547 12.9160099029541 L 20.99999809265137 3.038864135742188 L 14.85692024230957 13.86239051818848 L 13.55238914489746 13.12199020385742 C 13.55238914489746 13.12199020385742 15.44462585449219 9.788043975830078 17.24887275695801 6.609128952026367 L 17.25266075134277 6.602453231811523 C 17.25813293457031 6.592813491821289 17.2639102935791 6.582632064819336 17.26938056945801 6.572996139526367 L 17.27170944213867 6.568893432617188 C 17.27465438842773 6.563705444335938 17.27758979797363 6.558530807495117 17.2805347442627 6.553342819213867 L 17.28738975524902 6.541267395019531 C 17.28780937194824 6.540525436401367 17.28816223144531 6.53990364074707 17.28858375549316 6.539163589477539 L 17.29257583618164 6.532129287719727 C 17.29362678527832 6.530277252197266 17.29447746276855 6.528778076171875 17.29552841186523 6.526926040649414 L 17.30305290222168 6.513668060302734 C 17.3034725189209 6.512928009033203 17.30349922180176 6.512882232666016 17.30391883850098 6.512142181396484 L 21 0 Z M 34.82094955444336 24.35120964050293 C 34.82094955444336 24.35120964050293 41.73143005371094 36.52680969238281 41.73143005371094 36.52680969238281 L 40.8977165222168 37 L 40.27523422241211 37 L 33.51642990112305 25.09160995483398 L 34.82094955444336 24.35120964050293 Z M 14.54409027099609 35.5 L 28.54409027099609 35.5 L 28.54409027099609 37 C 28.54409027099609 37 14.54409027099609 37 14.54409027099609 37 L 14.54409027099609 35.5 Z M 6.641910552978516 25.2975902557373 L 7.946441650390625 26.03800010681152 L 1.724761962890625 37 L 0 37 L 0 37 C 0 37 0 37 0 37 L 0 37 L 0 37 L 0 37 C 0 37 0 37 0 37 L 0.5440902709960938 36.04136657714844 L 0.5440902709960938 36.04136657714844 C 2.131004333496094 33.24537658691406 6.641910552978516 25.2975902557373 6.641910552978516 25.2975902557373 Z" stroke="none" fill="#1f1f1f"/>
      </g>
    </g>
    <g id="Group_255" data-name="Group 255" transform="matrix(-0.017, -1, 1, -0.017, -811.078, 2522.772)">
      <path id="Path_16-2" data-name="Path 16" d="M718.86,3397.735c-237.3,86.248-40.788,203.741-256.507,317.045" transform="translate(87.851 -2104)" fill="none" stroke="#1f1f1f" stroke-width="1.5" stroke-dasharray="12"/>
      <g id="Polygon_1-2" data-name="Polygon 1" transform="translate(564.135 1614.839) rotate(120)" fill="#fff" stroke-dasharray="14">
        <path d="M21,0,42,37H0Z" stroke="none"/>
        <path d="M 21 0 C 21 0 21.02685737609863 0.0473175048828125 21.07728004455566 0.1361579895019531 L 21.07784843444824 0.1371612548828125 C 21.10300254821777 0.1814804077148438 21.13413429260254 0.2363319396972656 21.17049980163574 0.3004035949707031 L 21.1715259552002 0.3022117614746094 C 21.18042945861816 0.3178977966308594 21.18970489501953 0.3342399597167969 21.19924354553223 0.3510475158691406 L 21.19954299926758 0.3515739440917969 C 21.20431709289551 0.3599891662597656 21.20930862426758 0.3687820434570312 21.2142391204834 0.377471923828125 L 21.2145824432373 0.3780746459960938 C 21.21944046020508 0.3866310119628906 21.22440910339355 0.3953895568847656 21.22941780090332 0.4042129516601562 L 21.23056602478027 0.4062347412109375 C 21.23558616638184 0.4150810241699219 21.2407112121582 0.4241104125976562 21.24588012695312 0.4332160949707031 L 21.24600601196289 0.4334373474121094 C 21.24854850769043 0.4379158020019531 21.2510986328125 0.442413330078125 21.25367736816406 0.4469528198242188 L 21.2545280456543 0.448455810546875 C 21.25581932067871 0.4507293701171875 21.25686264038086 0.4525680541992188 21.2581615447998 0.4548568725585938 L 21.2588062286377 0.45599365234375 C 21.25984764099121 0.4578285217285156 21.26086235046387 0.4596138000488281 21.26190757751465 0.461456298828125 L 21.26308250427246 0.4635276794433594 C 21.26351928710938 0.4642982482910156 21.26392364501953 0.4650077819824219 21.26436233520508 0.4657821655273438 L 21.26479530334473 0.4665451049804688 C 21.2667236328125 0.469940185546875 21.26859855651855 0.4732437133789062 21.27054595947266 0.4766731262207031 L 21.27137565612793 0.4781379699707031 C 21.27181816101074 0.4789199829101562 21.27243423461914 0.4800033569335938 21.27287864685059 0.4807853698730469 L 21.27312660217285 0.4812240600585938 C 21.27383804321289 0.4824752807617188 21.27443504333496 0.4835281372070312 21.27514839172363 0.4847831726074219 L 21.27517509460449 0.484832763671875 C 21.27633476257324 0.4868736267089844 21.27738380432129 0.4887237548828125 21.27854919433594 0.4907760620117188 L 21.28026580810547 0.4938011169433594 C 21.28062629699707 0.4944381713867188 21.28088760375977 0.4948959350585938 21.28124809265137 0.4955329895019531 L 21.28185653686523 0.4966049194335938 C 21.28230667114258 0.4973983764648438 21.28276824951172 0.4982109069824219 21.28321838378906 0.4990043640136719 L 21.28474044799805 0.5016860961914062 C 21.28501319885254 0.502166748046875 21.28535652160645 0.5027732849121094 21.28562927246094 0.5032501220703125 L 21.28604698181152 0.5039863586425781 C 21.28650093078613 0.5047874450683594 21.28690910339355 0.5055084228515625 21.28736305236816 0.5063095092773438 L 21.29357719421387 0.5172538757324219 C 21.29357719421387 0.5172538757324219 21.29365158081055 0.5173835754394531 21.29365158081055 0.5173835754394531 L 21.30238342285156 0.5327720642089844 C 21.30247688293457 0.5329360961914062 21.30263328552246 0.5332107543945312 21.30272674560547 0.5333747863769531 L 21.30673980712891 0.5404472351074219 C 21.30711555480957 0.541107177734375 21.30747413635254 0.5417404174804688 21.30784797668457 0.5424003601074219 L 21.30823135375977 0.5430755615234375 C 21.30879402160645 0.5440673828125 21.3093204498291 0.5449943542480469 21.30988502502441 0.5459861755371094 L 21.31096649169922 0.5478935241699219 C 21.31134414672852 0.5485572814941406 21.31174278259277 0.5492630004882812 21.31212043762207 0.5499267578125 L 21.31780624389648 0.5599441528320312 C 21.31818771362305 0.5606155395507812 21.31854057312012 0.5612373352050781 21.31892204284668 0.5619087219238281 L 21.31998443603516 0.56378173828125 C 21.32036590576172 0.564453125 21.32068252563477 0.5650138854980469 21.32106590270996 0.5656852722167969 L 21.32480621337891 0.5722770690917969 C 21.32586288452148 0.5741386413574219 21.32707214355469 0.5762672424316406 21.32813262939453 0.5781402587890625 L 21.32934379577637 0.5802688598632812 C 21.32963180541992 0.580780029296875 21.32990455627441 0.5812606811523438 21.3301944732666 0.5817718505859375 L 21.33671951293945 0.5932693481445312 C 21.33671951293945 0.5932693481445312 21.3368968963623 0.5935783386230469 21.3368968963623 0.5935783386230469 L 21.33878707885742 0.5969123840332031 C 21.33927726745605 0.5977745056152344 21.33984375 0.5987739562988281 21.34033393859863 0.5996360778808594 L 21.34363746643066 0.6054534912109375 C 21.3446216583252 0.6071891784667969 21.3456974029541 0.6090850830078125 21.3466854095459 0.6108283996582031 L 21.3485221862793 0.6140632629394531 C 21.3486213684082 0.6142387390136719 21.34868621826172 0.6143531799316406 21.34878540039062 0.6145286560058594 L 21.35302734375 0.6220016479492188 C 21.35422325134277 0.6241073608398438 21.3553524017334 0.6260986328125 21.35655403137207 0.6282157897949219 L 21.35739898681641 0.6297035217285156 C 21.35809898376465 0.6309394836425781 21.35854530334473 0.6317214965820312 21.35924911499023 0.6329612731933594 L 21.36042785644531 0.6350364685058594 C 21.36052703857422 0.6352157592773438 21.36051559448242 0.63519287109375 21.36061668395996 0.6353721618652344 L 21.36291122436523 0.6394119262695312 C 21.36301040649414 0.6395912170410156 21.36314010620117 0.6398162841796875 21.36324119567871 0.6399955749511719 L 21.36530494689941 0.6436309814453125 C 21.36530494689941 0.6436309814453125 21.36550140380859 0.6439781188964844 21.36550140380859 0.6439781188964844 L 21.38456153869629 0.6775627136230469 C 21.38497543334961 0.6782913208007812 21.38528251647949 0.6788330078125 21.38569641113281 0.6795616149902344 L 21.38672065734863 0.6813621520996094 C 21.38723945617676 0.6822776794433594 21.38781547546387 0.6832962036132812 21.38833618164062 0.6842117309570312 L 21.39457321166992 0.6952018737792969 C 21.39488792419434 0.6957550048828125 21.39508819580078 0.6961097717285156 21.3954029083252 0.6966629028320312 L 21.39702796936035 0.6995277404785156 C 21.39786720275879 0.7010040283203125 21.39866828918457 0.7024154663085938 21.39950942993164 0.7038993835449219 L 21.41285705566406 0.7274131774902344 C 21.41285705566406 0.7274131774902344 21.41290283203125 0.7274932861328125 21.41290283203125 0.7274932861328125 L 21.4150390625 0.7312583923339844 C 21.41525268554688 0.7316360473632812 21.41559982299805 0.7322463989257812 21.41581344604492 0.7326240539550781 L 21.41724586486816 0.7351455688476562 C 21.41853141784668 0.7374153137207031 21.41986656188965 0.7397651672363281 21.4211597442627 0.7420425415039062 L 21.42295455932617 0.7452049255371094 C 21.42317008972168 0.7455825805664062 21.42337608337402 0.7459449768066406 21.42359161376953 0.7463264465332031 L 21.4249382019043 0.7487030029296875 C 21.42558670043945 0.7498435974121094 21.42611885070801 0.7507820129394531 21.4267692565918 0.7519264221191406 L 27.91047668457031 12.17560195922852 L 26.60594940185547 12.9160099029541 L 20.99999809265137 3.038864135742188 L 14.85692024230957 13.86239051818848 L 13.55238914489746 13.12199020385742 C 13.55238914489746 13.12199020385742 15.44462585449219 9.788043975830078 17.24887275695801 6.609128952026367 L 17.25266075134277 6.602453231811523 C 17.25813293457031 6.592813491821289 17.2639102935791 6.582632064819336 17.26938056945801 6.572996139526367 L 17.27170944213867 6.568893432617188 C 17.27465438842773 6.563705444335938 17.27758979797363 6.558530807495117 17.2805347442627 6.553342819213867 L 17.28738975524902 6.541267395019531 C 17.28780937194824 6.540525436401367 17.28816223144531 6.53990364074707 17.28858375549316 6.539163589477539 L 17.29257583618164 6.532129287719727 C 17.29362678527832 6.530277252197266 17.29447746276855 6.528778076171875 17.29552841186523 6.526926040649414 L 17.30305290222168 6.513668060302734 C 17.3034725189209 6.512928009033203 17.30349922180176 6.512882232666016 17.30391883850098 6.512142181396484 L 21 0 Z M 34.82094955444336 24.35120964050293 C 34.82094955444336 24.35120964050293 41.73143005371094 36.52680969238281 41.73143005371094 36.52680969238281 L 40.8977165222168 37 L 40.27523422241211 37 L 33.51642990112305 25.09160995483398 L 34.82094955444336 24.35120964050293 Z M 14.54409027099609 35.5 L 28.54409027099609 35.5 L 28.54409027099609 37 C 28.54409027099609 37 14.54409027099609 37 14.54409027099609 37 L 14.54409027099609 35.5 Z M 6.641910552978516 25.2975902557373 L 7.946441650390625 26.03800010681152 L 1.724761962890625 37 L 0 37 L 0 37 C 0 37 0 37 0 37 L 0 37 L 0 37 L 0 37 C 0 37 0 37 0 37 L 0.5440902709960938 36.04136657714844 L 0.5440902709960938 36.04136657714844 C 2.131004333496094 33.24537658691406 6.641910552978516 25.2975902557373 6.641910552978516 25.2975902557373 Z" stroke="none" fill="#1f1f1f"/>
      </g>
    </g>
  </g>
</svg>
